<svg width="32" height="32" viewBox="0 0 32 32" fill="none" xmlns="http://www.w3.org/2000/svg"><circle cx="16" cy="16" r="16" fill="#FFFFFF"/><path d="M22.6825 14.426C24.3118 14.426 25.6326 13.1052 25.6326 11.476C25.6326 9.84668 24.3118 8.52588 22.6825 8.52588C21.0532 8.52588 19.7324 9.84668 19.7324 11.476C19.7324 13.1052 21.0532 14.426 22.6825 14.426Z" fill="#F58CFE" fill-opacity="0.78"/><path d="M8.91688 14.426C10.5462 14.426 11.867 13.1052 11.867 11.476C11.867 9.84668 10.5462 8.52588 8.91688 8.52588C7.28759 8.52588 5.9668 9.84668 5.9668 11.476C5.9668 13.1052 7.28759 14.426 8.91688 14.426Z" fill="#F58CFE" fill-opacity="0.78"/><path d="M15.7997 12.8669C17.972 12.8669 19.7331 11.1058 19.7331 8.93345C19.7331 6.76106 17.972 5 15.7997 5C13.6273 5 11.8662 6.76106 11.8662 8.93345C11.8662 11.1058 13.6273 12.8669 15.7997 12.8669Z" fill="#6472EF"/><path d="M25.6329 15.4087H22.1543C22.5012 16.006 22.6835 16.6847 22.6829 17.3754V24.2589H26.6163C26.8771 24.2589 27.1272 24.1553 27.3116 23.9709C27.496 23.7865 27.5997 23.5364 27.5997 23.2756V17.3754C27.5997 16.8538 27.3924 16.3536 27.0236 15.9847C26.6548 15.6159 26.1545 15.4087 25.6329 15.4087Z" fill="#F58CFE" fill-opacity="0.78"/><path d="M9.44598 15.4087H5.96672C5.44512 15.4087 4.94487 15.6159 4.57604 15.9847C4.20721 16.3536 4 16.8538 4 17.3754V23.2756C4 23.5364 4.1036 23.7865 4.28802 23.9709C4.47244 24.1553 4.72256 24.2589 4.98336 24.2589H8.91681V17.3754C8.91631 16.6846 9.0989 16.006 9.44598 15.4087Z" fill="#F58CFE" fill-opacity="0.78"/><path d="M18.7516 13.4424H17.7683L15.8015 19.3426L13.8348 13.4424H12.8515C12.069 13.4424 11.3187 13.7532 10.7654 14.3064C10.2122 14.8597 9.90137 15.6101 9.90137 16.3925V25.2427C9.90137 25.5035 10.005 25.7536 10.1894 25.9381C10.3738 26.1225 10.6239 26.2261 10.8847 26.2261H20.7183C20.9791 26.2261 21.2293 26.1225 21.4137 25.9381C21.5981 25.7536 21.7017 25.5035 21.7017 25.2427V16.3925C21.7017 15.6101 21.3909 14.8597 20.8376 14.3064C20.2844 13.7532 19.534 13.4424 18.7516 13.4424Z" fill="#6472EF"/><circle cx="26.55" cy="4.55" r="1.55" fill="#9A8AFC"/><circle cx="29.025" cy="29.025" r="1.025" fill="#FCD985"/><circle cx="3.525" cy="28.525" r="1.525" fill="#72F2EB"/><circle cx="3.05" cy="4.05" r="2.05" fill="#FE7086"/><circle cx="7.1" cy="2.1" r="1.1" fill="#9A8AFC"/></svg>