<svg width="172" height="60" viewBox="0 0 172 60" fill="none" xmlns="http://www.w3.org/2000/svg"><path d="M118.287 23.8467H112.296V41H107.55V23.8467H101.588V19.9941H118.287V23.8467Z" fill="#5E6BE5"/><path d="M130.541 34.8184H120.756C120.913 36.9961 122.285 38.085 124.872 38.085C126.523 38.085 127.973 37.6943 129.223 36.9131V40.2529C127.836 40.9951 126.035 41.3662 123.818 41.3662C121.396 41.3662 119.516 40.6973 118.178 39.3594C116.84 38.0117 116.171 36.1367 116.171 33.7344C116.171 31.2441 116.894 29.2715 118.339 27.8164C119.785 26.3613 121.562 25.6338 123.671 25.6338C125.859 25.6338 127.548 26.2832 128.74 27.582C129.941 28.8809 130.541 30.6436 130.541 32.8701V34.8184ZM126.249 31.9766C126.249 29.8281 125.38 28.7539 123.642 28.7539C122.9 28.7539 122.255 29.0615 121.708 29.6768C121.171 30.292 120.844 31.0586 120.727 31.9766H126.249Z" fill="#5E6BE5"/><path d="M144.876 41H140.496V38.8467H140.437C139.431 40.5264 137.942 41.3662 135.97 41.3662C134.514 41.3662 133.367 40.9561 132.527 40.1357C131.697 39.3057 131.282 38.2021 131.282 36.8252C131.282 33.915 133.006 32.2354 136.453 31.7861L140.525 31.2441C140.525 29.6035 139.637 28.7832 137.859 28.7832C136.072 28.7832 134.373 29.3154 132.762 30.3799V26.8936C133.406 26.5615 134.285 26.2686 135.398 26.0146C136.521 25.7607 137.542 25.6338 138.46 25.6338C142.737 25.6338 144.876 27.7676 144.876 32.0352V41ZM140.525 34.9062V33.8955L137.801 34.2471C136.297 34.4424 135.545 35.1211 135.545 36.2832C135.545 36.8105 135.725 37.2451 136.087 37.5869C136.458 37.9189 136.956 38.085 137.581 38.085C138.45 38.085 139.158 37.7871 139.705 37.1914C140.252 36.5859 140.525 35.8242 140.525 34.9062Z" fill="#5E6BE5"/><path d="M171.456 41H166.842V32.4453C166.842 30.2676 166.041 29.1787 164.44 29.1787C163.678 29.1787 163.058 29.5059 162.579 30.1602C162.101 30.8145 161.862 31.6299 161.862 32.6064V41H157.233V32.3574C157.233 30.2383 156.446 29.1787 154.874 29.1787C154.083 29.1787 153.448 29.4912 152.97 30.1162C152.501 30.7412 152.267 31.5908 152.267 32.665V41H147.638V26H152.267V28.3438H152.325C152.804 27.543 153.473 26.8936 154.332 26.3955C155.201 25.8877 156.149 25.6338 157.174 25.6338C159.293 25.6338 160.743 26.5664 161.525 28.4316C162.667 26.5664 164.347 25.6338 166.564 25.6338C169.825 25.6338 171.456 27.6455 171.456 31.6689V41Z" fill="#5E6BE5"/><path d="M78.7773 39.5938C76.7266 40.7754 74.1777 41.3662 71.1309 41.3662C67.752 41.3662 65.0859 40.4336 63.1328 38.5684C61.1895 36.6934 60.2178 34.1152 60.2178 30.834C60.2178 27.5332 61.2822 24.8428 63.4111 22.7627C65.54 20.6826 68.3721 19.6426 71.9072 19.6426C74.1338 19.6426 76.0967 19.9502 77.7959 20.5654V25.0039C76.1748 24.0664 74.1924 23.5977 71.8486 23.5977C69.8857 23.5977 68.2842 24.2373 67.0439 25.5166C65.8135 26.7861 65.1982 28.4854 65.1982 30.6143C65.1982 32.7725 65.75 34.4424 66.8535 35.624C67.9668 36.8057 69.4658 37.3965 71.3506 37.3965C72.4834 37.3965 73.3818 37.2354 74.0459 36.9131V32.8115H69.8418V29.0322H78.7773V39.5938Z" fill="#5E6BE5"/><path d="M80.9975 40.1943V35.5068C81.8471 36.2197 82.7699 36.7568 83.766 37.1182C84.7621 37.4697 85.768 37.6455 86.7836 37.6455C87.3793 37.6455 87.8969 37.5918 88.3363 37.4844C88.7855 37.377 89.1566 37.2305 89.4496 37.0449C89.7523 36.8496 89.977 36.625 90.1234 36.3711C90.2699 36.1074 90.3432 35.8242 90.3432 35.5215C90.3432 35.1113 90.226 34.7451 89.9916 34.4229C89.7572 34.1006 89.435 33.8027 89.0248 33.5293C88.6244 33.2559 88.1459 32.9922 87.5893 32.7383C87.0326 32.4844 86.432 32.2256 85.7875 31.9619C84.1469 31.2783 82.9213 30.4434 82.1107 29.457C81.31 28.4707 80.9096 27.2793 80.9096 25.8828C80.9096 24.7891 81.1293 23.8516 81.5688 23.0703C82.0082 22.2793 82.6039 21.6299 83.3559 21.1221C84.1176 20.6143 84.9965 20.2432 85.9926 20.0088C86.9887 19.7646 88.0434 19.6426 89.1566 19.6426C90.2504 19.6426 91.2172 19.7109 92.057 19.8477C92.9066 19.9746 93.6879 20.1748 94.4008 20.4482V24.8281C94.0492 24.584 93.6635 24.3691 93.2436 24.1836C92.8334 23.998 92.4086 23.8467 91.9691 23.7295C91.5297 23.6025 91.0902 23.5098 90.6508 23.4512C90.2211 23.3926 89.8109 23.3633 89.4203 23.3633C88.8832 23.3633 88.3949 23.417 87.9555 23.5244C87.516 23.6221 87.1449 23.7637 86.8422 23.9492C86.5395 24.1348 86.3051 24.3594 86.1391 24.623C85.973 24.877 85.89 25.165 85.89 25.4873C85.89 25.8389 85.9828 26.1562 86.1684 26.4395C86.3539 26.7129 86.6176 26.9766 86.9594 27.2305C87.3012 27.4746 87.7162 27.7188 88.2045 27.9629C88.6928 28.1973 89.2445 28.4414 89.8598 28.6953C90.6996 29.0469 91.4516 29.4229 92.1156 29.8232C92.7895 30.2139 93.3656 30.6582 93.8441 31.1562C94.3227 31.6543 94.6889 32.2256 94.9428 32.8701C95.1967 33.5049 95.3236 34.2471 95.3236 35.0967C95.3236 36.2686 95.099 37.2549 94.6498 38.0557C94.2104 38.8467 93.6098 39.4912 92.848 39.9893C92.0863 40.4775 91.1977 40.8291 90.182 41.0439C89.1762 41.2588 88.1117 41.3662 86.9887 41.3662C85.8363 41.3662 84.7377 41.2686 83.6928 41.0732C82.6576 40.8779 81.7592 40.585 80.9975 40.1943Z" fill="#5E6BE5"/><circle cx="25" cy="30" r="25" fill="#EEEEFD"/><path d="M34.4973 28.5127C36.7195 28.5127 38.521 26.7112 38.521 24.489C38.521 22.2668 36.7195 20.4653 34.4973 20.4653C32.2751 20.4653 30.4736 22.2668 30.4736 24.489C30.4736 26.7112 32.2751 28.5127 34.4973 28.5127Z" fill="#F58CFE" fill-opacity="0.78"/><path d="M15.7229 28.5127C17.9451 28.5127 19.7466 26.7112 19.7466 24.489C19.7466 22.2668 17.9451 20.4653 15.7229 20.4653C13.5007 20.4653 11.6992 22.2668 11.6992 24.489C11.6992 26.7112 13.5007 28.5127 15.7229 28.5127Z" fill="#F58CFE" fill-opacity="0.78"/><path d="M25.11 26.386C28.073 26.386 30.4749 23.9841 30.4749 21.0211C30.4749 18.0582 28.073 15.6562 25.11 15.6562C22.1471 15.6562 19.7451 18.0582 19.7451 21.0211C19.7451 23.9841 22.1471 26.386 25.11 26.386Z" fill="#6472EF"/><path d="M38.5209 29.8521H33.7764C34.2495 30.6668 34.4982 31.5924 34.4973 32.5345V41.9231H39.8622C40.2179 41.9231 40.559 41.7818 40.8105 41.5302C41.0621 41.2787 41.2034 40.9376 41.2034 40.5818V32.5345C41.2034 31.8231 40.9208 31.1408 40.4177 30.6377C39.9147 30.1347 39.2324 29.8521 38.5209 29.8521Z" fill="#F58CFE" fill-opacity="0.78"/><path d="M16.4435 29.8521H11.6981C10.9866 29.8521 10.3044 30.1347 9.8013 30.6377C9.29824 31.1408 9.01562 31.8231 9.01562 32.5345V40.5818C9.01562 40.9376 9.15693 41.2787 9.40846 41.5302C9.65999 41.7818 10.0011 41.9231 10.3568 41.9231H15.7217V32.5345C15.7211 31.5923 15.9701 30.6667 16.4435 29.8521V29.8521Z" fill="#F58CFE" fill-opacity="0.78"/><path d="M29.1355 27.1714H27.7942L25.1118 35.2187L22.4293 27.1714H21.0881C20.021 27.1714 18.9975 27.5953 18.243 28.3499C17.4884 29.1045 17.0645 30.1279 17.0645 31.1951V43.2661C17.0645 43.6218 17.2058 43.9629 17.4573 44.2145C17.7088 44.466 18.05 44.6073 18.4057 44.6073H31.8179C32.1736 44.6073 32.5148 44.466 32.7663 44.2145C33.0178 43.9629 33.1591 43.6218 33.1591 43.2661V31.1951C33.1591 30.1279 32.7352 29.1045 31.9806 28.3499C31.226 27.5953 30.2026 27.1714 29.1355 27.1714Z" fill="#6472EF"/><circle cx="41.3932" cy="11.1481" r="1.63934" fill="#9A8AFC"/><circle cx="42.6224" cy="48.0326" r="0.819672" fill="#FCD985"/><circle cx="4.09799" cy="49.6727" r="0.819672" fill="#72F2EB"/><circle cx="8.40156" cy="48.6477" r="2.2541" fill="#FFDD8B"/><circle cx="7.78745" cy="9.50815" r="0.819672" fill="#9A8AFC"/><circle cx="4.10245" cy="10.3329" r="1.64444" fill="#FE7086"/></svg>